<?xml version="1.0" standalone="no"?>
<!DOCTYPE svg PUBLIC "-//W3C//DTD SVG 20010904//EN"
 "http://www.w3.org/TR/2001/REC-SVG-20010904/DTD/svg10.dtd">
<svg version="1.0" xmlns="http://www.w3.org/2000/svg"
 width="916.000000pt" height="916.000000pt" viewBox="0 0 916.000000 916.000000"
 preserveAspectRatio="xMidYMid meet">
<metadata>
Created by potrace 1.14, written by Peter Selinger 2001-2017
</metadata>
<g transform="translate(0.000000,916.000000) scale(0.100000,-0.100000)"
fill="#000000" stroke="none">
<path d="M4345 9113 c-371 -19 -818 -102 -1169 -218 -431 -142 -866 -364
-1234 -628 -369 -265 -764 -660 -1029 -1029 -198 -276 -414 -669 -531 -964
-315 -802 -399 -1660 -246 -2504 218 -1200 920 -2264 1944 -2947 644 -430
1376 -681 2164 -744 191 -15 694 -6 866 15 1026 130 1917 554 2634 1256 390
381 673 770 906 1245 231 471 367 932 436 1475 21 172 30 675 15 866 -87 1093
-540 2081 -1306 2850 -788 790 -1801 1249 -2920 1324 -139 9 -387 11 -530 3z"/>
</g>
</svg>
